<?xml version="1.0" encoding="utf-8"?>
<!-- Generator: Adobe Illustrator 24.1.1, SVG Export Plug-In . SVG Version: 6.00 Build 0)  -->
<svg version="1.0" id="Layer_1" xmlns="http://www.w3.org/2000/svg" xmlns:xlink="http://www.w3.org/1999/xlink" x="0px" y="0px"
	 viewBox="0 0 41 40.2" style="enable-background:new 0 0 41 40.2;" xml:space="preserve">
<style type="text/css">
	.st0{fill:#FFFFFF;}
	.st1{fill-rule:evenodd;clip-rule:evenodd;fill:#FFFFFF;}
</style>
<g>
	<path class="st0" d="M102.5-81.9l7.6-6.7V-76L102.5-81.9z M86.4-88.7V-76l7.6-5.9L86.4-88.7z M99-78.8c-0.2,0.2-0.5,0.3-0.8,0.3
		s-0.5-0.1-0.8-0.3l-1.8-1.6l-7.2,5.6h19.4l-7.2-5.6L99-78.8z M96.5-82.7l1.7,1.5l10-8.9h-20L96.5-82.7
		C96.5-82.7,96.5-82.7,96.5-82.7L96.5-82.7z M122.4-82.4c0,13.3-10.8,24.2-24.2,24.2S74-69.1,74-82.4c0-13.3,10.8-24.2,24.2-24.2
		S122.4-95.8,122.4-82.4z M112.3-89.4c0-1.6-1.3-3-2.9-3H87c-1.6,0-2.9,1.3-2.9,3v13.9c0,0.8,0.3,1.6,0.9,2.1l0,0
		c0.5,0.5,1.2,0.8,2,0.8h22.5c1.6,0,2.9-1.3,2.9-3L112.3-89.4L112.3-89.4z"/>
</g>
<path class="st1" d="M20.5,2.1c3.3,0,6.4,0.9,9.1,2.5c2.7,1.6,4.9,3.8,6.4,6.5c1.6,2.7,2.4,5.8,2.5,9.1c-0.1,4.6-1.5,8.5-4.4,11.8
	c-2.8,3.3-6.4,5.3-10.1,6V25.1h3.5l0.8-5.1h-5.3v-3.3c0-0.7,0.2-1.4,0.6-1.9c0.4-0.5,1.2-0.8,2.3-0.9H29V9.5c0,0-0.5-0.1-1.3-0.2
	c-0.9-0.1-1.9-0.2-2.8-0.2c-2.1,0-3.8,0.6-5.1,1.8c-1.2,1.2-1.9,2.9-1.9,5.2v3.9h-4.1v5.1h4.1V38c-4.6-0.8-8.2-2.8-11-6
	s-4.3-7.2-4.4-11.8c0-3.4,0.9-6.4,2.5-9.1c1.6-2.7,3.8-4.9,6.4-6.5C14.1,3,17.1,2.2,20.5,2.1L20.5,2.1z"/>
</svg>
