<?xml version="1.0" encoding="utf-8"?>
<!-- Generator: Adobe Illustrator 24.1.1, SVG Export Plug-In . SVG Version: 6.00 Build 0)  -->
<svg version="1.1" id="Layer_1" xmlns="http://www.w3.org/2000/svg" xmlns:xlink="http://www.w3.org/1999/xlink" x="0px" y="0px"
	 viewBox="0 0 512 512" style="enable-background:new 0 0 512 512;" xml:space="preserve">
<style type="text/css">
	.st0{fill:#16814B;}
	.st1{fill:#010101;}
	.st2{fill:#FBE908;}
</style>
<rect x="-0.7" y="-3.5" class="st0" width="520.4" height="520.4"/>
<g>
	<g>
		<g>
			<g>
				<g>
					<path class="st1" d="M138.4,237.2c-1.9-1.6-4.2-2.8-6.9-3.6c-2.7-0.8-5.6-1-8.9-0.5c0,0,0,0,0-0.1c-5.3,1.1-10.7,2.2-16,3.3
						c3,13.6,6,27.3,9,40.9c5-1.1,10-2.2,15.1-3.2c0,0,0,0,0,0c3-0.8,5.5-2.1,7.5-3.7c2-1.7,3.7-3.6,4.9-5.7c1.2-2.2,2-4.5,2.4-7
						c0.4-2.5,0.4-5,0-7.5c-0.4-2.5-1.2-4.8-2.4-7.1C141.9,240.7,140.4,238.8,138.4,237.2z M132.6,257.1c-0.3,1.5-0.9,2.8-1.8,4
						c-0.9,1.2-2.3,1.9-4,2.2c-0.3,0.1-0.6,0.1-0.9,0.2c-1.3-6.3-2.5-12.6-3.8-18.9c0.3-0.1,0.6-0.1,0.9-0.2
						c1.7-0.3,3.2-0.2,4.6,0.6c1.3,0.7,2.4,1.7,3.2,3c0.8,1.3,1.4,2.7,1.7,4.4C132.9,254,132.9,255.6,132.6,257.1z"/>
				</g>
				<g>
					<path class="st1" d="M172.2,236.8c-1.4-0.7-3-1.1-4.7-1.3c-1.7-0.2-3.5-0.2-5.3,0c-2.1,0.3-4.1,0.9-6,1.9
						c-1.9,0.9-3.6,2.2-5,3.8c-1.4,1.6-2.4,3.5-3.1,5.7c-0.7,2.2-0.7,4.8-0.3,7.6c0.5,3.1,1.5,5.6,2.9,7.6c1.4,1.9,3,3.4,4.8,4.4
						c1.8,1,3.8,1.7,5.9,1.9c2.1,0.2,4.2,0.2,6.1-0.1c2.1-0.3,4-0.8,5.7-1.5c1.7-0.7,3.1-1.5,4.1-2.5c-0.4-3.4-0.9-6.8-1.3-10.2
						c-0.9,1-2.1,1.8-3.4,2.4c-1.3,0.6-2.7,1-4.2,1.2c-1,0.1-1.8,0.2-2.5,0.1c1.7-0.8,3.3-1.7,4.8-2.8c1.5-1.1,2.8-2.3,3.8-3.6
						c1.1-1.3,1.9-2.6,2.4-4c0.6-1.4,0.8-2.7,0.6-4.1c-0.2-1.5-0.7-2.9-1.7-4C174.8,238.4,173.7,237.5,172.2,236.8z M165.8,249.5
						c-0.3,0.7-0.7,1.4-1.2,1.9c-0.6,0.5-1.2,1-2,1.4c-0.8,0.4-1.6,0.8-2.5,1c-0.1-0.2-0.2-0.4-0.2-0.6c0-0.2-0.1-0.4-0.1-0.6
						c-0.2-1.2-0.2-2.2,0-3.1c0.2-0.9,0.4-1.6,0.7-2.2c0.3-0.6,0.8-1,1.3-1.3c0.5-0.3,1-0.5,1.5-0.6c0.7-0.1,1.4,0,1.9,0.3
						c0.5,0.3,0.8,0.7,0.9,1.3C166.1,248,166,248.8,165.8,249.5z"/>
				</g>
				<g>
					<path class="st1" d="M182.7,265.8c3.9-0.5,7.8-0.9,11.7-1.3c-1.4-13.9-2.8-27.8-4.2-41.7c-4.1,0.4-8.3,0.9-12.4,1.4
						C179.4,238.1,181,251.9,182.7,265.8z"/>
				</g>
				<g>
					<path class="st1" d="M223.2,249.7c-1,0.9-2.2,1.6-3.6,2.1c-1.4,0.5-2.8,0.8-4.3,0.9c-1,0.1-1.8,0-2.5-0.1
						c1.7-0.6,3.4-1.5,4.9-2.4c1.6-1,2.9-2.1,4-3.3c1.1-1.2,2-2.5,2.7-3.8c0.7-1.3,0.9-2.7,0.9-4c-0.1-1.6-0.5-2.9-1.4-4.1
						c-0.8-1.2-1.9-2.1-3.3-2.9c-1.4-0.8-2.9-1.3-4.6-1.7c-1.7-0.3-3.5-0.5-5.3-0.3c-2.1,0.2-4.1,0.6-6.1,1.4
						c-2,0.8-3.8,1.9-5.3,3.4c-1.5,1.5-2.7,3.3-3.5,5.5c-0.8,2.2-1.1,4.7-0.8,7.6c0.3,3.1,1.1,5.7,2.3,7.7c1.2,2,2.7,3.6,4.5,4.7
						c1.8,1.1,3.7,1.9,5.8,2.3c2.1,0.4,4.1,0.5,6.1,0.4c2.1-0.2,4-0.5,5.8-1.1c1.7-0.6,3.2-1.3,4.2-2.2
						C223.6,256.6,223.4,253.1,223.2,249.7z M209.8,247.5c-0.8,0.4-1.7,0.6-2.6,0.8c-0.1-0.2-0.2-0.4-0.2-0.6c0-0.2,0-0.4-0.1-0.6
						c-0.1-1.2,0-2.2,0.2-3.1c0.2-0.9,0.5-1.6,0.9-2.1c0.4-0.5,0.8-1,1.4-1.2c0.5-0.3,1-0.4,1.5-0.4c0.7-0.1,1.3,0.1,1.9,0.4
						c0.5,0.3,0.8,0.8,0.8,1.3c0.1,0.9-0.1,1.7-0.4,2.4c-0.3,0.7-0.8,1.3-1.4,1.8C211.3,246.7,210.6,247.1,209.8,247.5z"/>
				</g>
				<g>
					<path class="st1" d="M240,245.8c-0.1-1.6,0.2-2.8,0.9-3.6c0.7-0.8,1.4-1.2,2.3-1.2c0.9,0,1.7,0.3,2.5,1.1
						c0.8,0.8,1.2,1.9,1.2,3.4c0.1,5.2,0.2,10.3,0.4,15.5c3.9-0.1,7.8-0.1,11.7-0.2c0-6.9-0.1-13.9-0.1-20.8c0-2-0.3-3.7-1-5.2
						c-0.6-1.5-1.5-2.7-2.5-3.7c-1-1-2.2-1.7-3.5-2.1c-1.3-0.5-2.6-0.7-3.9-0.6c-1.7,0-3.4,0.5-4.9,1.3c-1.5,0.9-2.7,2.1-3.5,3.7
						c0-1.5-0.1-3-0.1-4.5c-4.1,0.1-8.2,0.3-12.3,0.5c0.5,10.8,1.1,21.5,1.6,32.3c3.9-0.2,7.8-0.4,11.7-0.5
						C240.3,256.1,240.1,251,240,245.8z"/>
				</g>
				<g>
					<path class="st1" d="M265.9,258.1c1.4,1.3,3.1,2.3,4.9,2.8c1.8,0.6,3.6,0.9,5.4,0.9c2.1,0,4.1-0.2,5.9-0.7
						c1.8-0.5,3.3-1.1,4.5-1.9c0.1-3.5,0.2-7,0.4-10.5c-0.1,0-0.2,0-0.3,0c-1,1-2.2,1.8-3.5,2.3c-1.3,0.5-2.6,0.8-4,0.8
						c-0.8,0-1.6-0.2-2.4-0.4c-0.8-0.3-1.4-0.7-2-1.3c-0.6-0.6-1-1.3-1.4-2.2c-0.3-0.9-0.5-1.9-0.5-3.1c0-1.1,0.2-2.1,0.6-2.9
						c0.4-0.8,0.9-1.5,1.6-2c0.6-0.5,1.4-0.9,2.2-1.2c0.8-0.2,1.7-0.4,2.6-0.3c1.2,0,2.5,0.3,3.7,0.8c1.2,0.5,2.3,1.3,3.3,2.2
						c0.1,0,0.2,0,0.3,0c0.1-3.5,0.2-7,0.4-10.5c-1.4-0.7-3-1.3-4.8-1.8c-1.9-0.5-3.8-0.8-5.9-0.8c-2,0-3.9,0.2-5.8,0.7
						c-1.9,0.5-3.6,1.4-5.1,2.7c-1.5,1.2-2.7,2.9-3.6,5c-0.9,2.1-1.4,4.7-1.4,7.9c0,3.2,0.5,5.9,1.4,8.1
						C263.3,255,264.5,256.7,265.9,258.1z"/>
				</g>
				<g>
					<path class="st1" d="M291,259.6c0.8,0.8,1.8,1.4,2.9,1.9c1.1,0.4,2.2,0.7,3.4,0.8c1.4,0.1,2.9-0.1,4.4-0.7
						c1.5-0.5,2.8-1.4,3.9-2.5c-0.1,1.1-0.1,2.1-0.2,3.2c3.9,0.2,7.8,0.5,11.7,0.8c0.5-6,1-11.9,1.4-17.9c0.2-2.7,0-5-0.7-6.9
						c-0.7-1.9-1.7-3.5-3-4.8c-1.3-1.3-2.9-2.2-4.7-2.9c-1.8-0.7-3.9-1.1-6-1.2c-2-0.1-4.1,0-6.3,0.3c-2.2,0.3-4.3,0.8-6.5,1.5
						c0.7,3.2,1.4,6.3,2.1,9.5c3.3-1.1,6-1.6,8.2-1.4c2.2,0.1,3.7,0.9,4.4,2.3c0.2,0.6,0,1-0.8,1.2c-0.7,0.2-1.7,0.4-3,0.5
						c-1.3,0.1-2.7,0.3-4.3,0.5c-1.6,0.2-3.1,0.6-4.5,1.2c-1.4,0.6-2.6,1.5-3.5,2.6c-1,1.2-1.5,2.7-1.5,4.7
						c-0.1,1.6,0.2,2.9,0.6,4.1C289.6,257.8,290.2,258.8,291,259.6z M300,251c0.3-0.4,0.8-0.7,1.3-0.9c0.6-0.2,1.3-0.2,2.1-0.2
						s1.8,0.1,2.8,0.1c0,0.6-0.1,1.2-0.1,1.9c-0.3,1.4-0.8,2.3-1.6,2.9c-0.7,0.5-1.5,0.8-2.3,0.7c-0.8,0-1.4-0.3-2-0.8
						c-0.6-0.5-0.9-1.1-0.8-1.8C299.5,252.1,299.6,251.4,300,251z"/>
				</g>
				<g>
					<path class="st1" d="M333.8,249.7c0.2-1.6,0.6-2.7,1.4-3.4c0.8-0.7,1.6-1,2.4-0.9c0.9,0.1,1.7,0.6,2.3,1.4
						c0.7,0.9,0.9,2,0.7,3.5c-0.6,5.1-1.2,10.3-1.7,15.4c3.9,0.4,7.7,0.9,11.6,1.4c0.9-6.9,1.8-13.8,2.7-20.6c0.3-2,0.2-3.7-0.3-5.3
						c-0.4-1.5-1.1-2.9-1.9-4c-0.9-1.1-1.9-2-3.2-2.6c-1.2-0.6-2.5-1-3.8-1.2c-1.7-0.2-3.4,0-5,0.7c-1.6,0.6-2.9,1.7-4,3.2
						c0.2-1.5,0.3-3,0.5-4.5c-4.1-0.4-8.2-0.8-12.2-1.2c-0.9,10.7-1.8,21.5-2.8,32.2c3.9,0.3,7.8,0.7,11.7,1.1
						C332.8,260,333.3,254.9,333.8,249.7z"/>
				</g>
				<g>
					<path class="st1" d="M356.9,265.8c0.9,1.2,2.1,2.1,3.5,2.7c1.4,0.6,2.9,1.1,4.6,1.3c1.3,0.2,2.7,0.3,4.1,0.3
						c1.4,0,2.8-0.1,4.2-0.3c0.5-3.2,1-6.3,1.6-9.5c-0.4,0-0.9,0.1-1.4,0.1c-0.4,0-0.9,0-1.4,0c-0.5,0-1.1,0-1.6-0.1
						c-1.1-0.2-2-0.5-2.8-1c-0.8-0.5-1.1-1.4-0.9-2.6c0.5-3.5,1.1-6.1,1.6-9.6c2.1,0.3,4.2,0.6,6.2,1c0.5-3,1-6,1.5-9
						c-2.1-0.3-4.2-0.7-6.3-1c0.5-3.2,1-6.3,1.4-9.5c-4.1-0.6-8.2-1.2-12.4-1.8c-1.3,9.7-2.6,18.5-3.9,28.2
						c-0.3,2.5-0.3,4.6,0.1,6.4C355.3,263.1,356,264.6,356.9,265.8z"/>
				</g>
				<g>
					<path class="st1" d="M378.7,267.8c1,1.7,2.4,3.1,4.2,4.4c1.8,1.2,4,2.1,6.7,2.6c2.7,0.5,5.1,0.5,7.2,0.1c2.1-0.5,4-1.3,5.5-2.5
						c1.6-1.2,2.9-2.7,3.9-4.5c1-1.8,1.8-3.8,2.2-6.1c0.5-2.2,0.6-4.4,0.4-6.5c-0.2-2.1-0.8-4-1.8-5.8c-1-1.7-2.4-3.2-4.3-4.5
						c-1.9-1.2-4.2-2.1-7-2.7c-2.8-0.5-5.3-0.6-7.5-0.1c-2.2,0.5-4,1.3-5.6,2.6c-1.6,1.2-2.8,2.8-3.8,4.7c-0.9,1.9-1.6,3.9-2,6.2
						c-0.4,2.2-0.4,4.4-0.2,6.5C377,264.2,377.7,266.1,378.7,267.8z M389,255.3c0.3-0.7,0.6-1.4,1.1-1.8c0.4-0.5,1-0.8,1.6-1.1
						c0.6-0.2,1.4-0.3,2.2-0.1c0.8,0.2,1.5,0.5,2,0.9c0.5,0.4,0.9,1,1.1,1.6c0.2,0.6,0.3,1.3,0.3,2.1c0,0.8-0.1,1.6-0.3,2.5
						c-0.2,0.9-0.4,1.6-0.7,2.4c-0.3,0.7-0.7,1.3-1.1,1.8c-0.4,0.5-1,0.8-1.6,1.1c-0.6,0.2-1.4,0.3-2.2,0.1c-1.6-0.3-2.6-1.1-3-2.4
						c-0.4-1.3-0.4-2.8-0.1-4.6C388.5,256.8,388.7,256,389,255.3z"/>
				</g>
			</g>
			<path class="st1" d="M430.8,227.2c-1.1-1.8-3-3.2-5.2-3.7c-54.8-12.6-108.6-18.4-164.8-18.4s-112.6,6.4-167.4,19
				c-2.2,0.5-4.1,1.8-5.2,3.7c-1,1.6-1.3,3.4-0.9,5.1l13.5,56c0.8,3.3,3.8,5.5,7.1,5.5c0.6,0,1.1-0.1,1.7-0.2
				c37.2-8.5,75.3-13.9,113.4-16.1l0.6,0l-0.3-4.5l-0.6,0c-38.3,2.2-76.7,7.6-114.1,16.2c-1.4,0.3-2.9-0.5-3.2-1.9L92,231.7
				c-0.1-0.6,0-1.3,0.3-1.8c0.4-0.7,1.2-1.2,2-1.4c54.5-12.5,110.5-18.9,166.4-18.9s109.3,5.8,163.8,18.3c0.8,0.2,1.6,0.7,2,1.4
				c0.4,0.6,0.5,1.2,0.3,1.8l-13.2,56.1c-0.3,1.4-1.8,2.3-3.2,1.9c-37.9-8.7-73.6-13.6-112.5-15.6l-0.6,0l-0.2,4.5l0.6,0
				c38.6,2.1,74.1,6.9,111.7,15.5c3.9,0.9,7.8-1.5,8.7-5.3l13.5-56C432.1,230.6,431.8,228.8,430.8,227.2z"/>
		</g>
		<g>
			<g>
				<path class="st1" d="M229.7,278.7c0.1,1.1,0.1,2.3,0.2,3.4c0.1,1.9,0.2,3.8,0.3,5.7c1.5-0.1,2.9-0.1,4.4-0.2
					c-0.1-1.7-0.1-2.7-0.2-4.4c1.2,0,2.3-0.1,3.5-0.1c0-0.2,0-0.5,0-0.7c0-1.1-0.1-2.2-0.1-3.3c-1.2,0-2.4,0.1-3.5,0.1
					c0-0.1,0-0.1,0-0.2c0-0.6,0-1.1-0.1-1.7c1.8-0.1,3.6-0.1,5.3-0.2c0-1.3-0.1-3.3-0.1-4.6c-3.3,0.1-6.6,0.2-9.8,0.4
					C229.5,274.9,229.6,276.8,229.7,278.7z"/>
			</g>
			<g>
				<path class="st1" d="M252.4,276.4c-0.4-1-0.8-1.7-1.5-2.4c-0.6-0.6-1.3-1.1-2.1-1.4c-0.8-0.3-1.7-0.5-2.6-0.4
					c-0.9,0-1.8,0.2-2.6,0.5c-0.8,0.3-1.5,0.9-2.1,1.5c-0.6,0.7-1,1.5-1.4,2.4c-0.2,0.5-0.3,1-0.4,1.6c-0.1,0.5-0.1,1.1-0.1,1.7
					c0,0.6,0.1,1.2,0.2,1.7c0.1,0.6,0.3,1.1,0.4,1.6c0.4,0.9,0.9,1.7,1.5,2.4c0.6,0.6,1.3,1.1,2.1,1.4c0.8,0.3,1.6,0.4,2.5,0.4
					c0.9,0,1.7-0.2,2.5-0.5c0.8-0.3,1.5-0.8,2.1-1.5c0.6-0.7,1-1.5,1.4-2.4c0.2-0.5,0.3-1,0.4-1.6c0.1-0.5,0.1-1.1,0.1-1.7
					c0-0.6-0.1-1.2-0.1-1.7C252.8,277.4,252.6,276.9,252.4,276.4z M248.1,282.5c-0.4,0.6-1,0.9-1.7,0.9c-0.7,0-1.2-0.3-1.7-0.9
					c-0.2-0.3-0.4-0.6-0.5-0.9c-0.2-0.5-0.3-1-0.3-1.7c0-0.7,0-1.2,0.2-1.7c0.1-0.4,0.3-0.7,0.5-1c0.5-0.6,1-0.9,1.7-0.9
					c0.7,0,1.2,0.3,1.7,0.9c0.2,0.3,0.4,0.6,0.5,1c0.2,0.5,0.2,1,0.2,1.7c0,0.7-0.1,1.2-0.2,1.7
					C248.5,281.9,248.3,282.2,248.1,282.5z"/>
			</g>
			<g>
				<path class="st1" d="M266.8,276.4c-0.3-1-0.8-1.8-1.4-2.4c-0.6-0.6-1.3-1.1-2.1-1.5c-0.8-0.3-1.7-0.5-2.6-0.5
					c-0.9,0-1.8,0.2-2.6,0.5c-0.8,0.3-1.5,0.8-2.1,1.5c-0.6,0.6-1.1,1.5-1.4,2.4c-0.2,0.5-0.3,1-0.4,1.6c-0.1,0.5-0.1,1.1-0.1,1.7
					s0.1,1.2,0.1,1.7c0.1,0.6,0.2,1.1,0.4,1.6c0.4,1,0.8,1.8,1.4,2.4s1.3,1.1,2.1,1.4c0.8,0.3,1.6,0.5,2.5,0.5
					c0.9,0,1.7-0.2,2.5-0.5c0.8-0.3,1.5-0.8,2.1-1.4c0.6-0.6,1.1-1.4,1.4-2.4c0.2-0.5,0.3-1,0.4-1.6c0.1-0.5,0.1-1.1,0.1-1.7
					c0-0.6,0-1.2-0.1-1.7C267.1,277.4,267,276.9,266.8,276.4z M262.3,282.3c-0.5,0.6-1,0.9-1.7,0.9c-0.7,0-1.2-0.3-1.7-0.9
					c-0.2-0.3-0.4-0.6-0.5-0.9c-0.1-0.5-0.2-1-0.2-1.7c0-0.7,0.1-1.2,0.2-1.7c0.1-0.4,0.3-0.7,0.5-1c0.5-0.6,1-0.9,1.7-0.9
					c0.7,0,1.2,0.3,1.7,0.9c0.2,0.3,0.4,0.6,0.5,1c0.1,0.5,0.2,1,0.2,1.7c0,0.7-0.1,1.2-0.2,1.7
					C262.7,281.8,262.5,282.1,262.3,282.3z"/>
			</g>
			<g>
				<path class="st1" d="M280,278.2c-0.1-0.3-0.1-0.6-0.2-0.9c-0.2-0.9-0.6-1.6-1.1-2.3c-0.5-0.7-1.2-1.3-2-1.8
					c-0.8-0.5-1.8-0.8-2.8-0.8c0,0,0,0,0,0c-1.8,0-3.6-0.1-5.4-0.1c0,1.9,0,3.8-0.1,5.7c0,1.1,0,2.3,0,3.4c0,1.9,0,3.8-0.1,5.7
					c1.8,0,3.5,0,5.3,0.1c0,0,0,0,0,0c1.1-0.1,2-0.3,2.8-0.7s1.5-1,2-1.7c0.6-0.7,1-1.4,1.3-2.3c0.1-0.3,0.2-0.6,0.3-0.9
					c0.1-0.6,0.2-1.1,0.2-1.7C280.1,279.4,280.1,278.8,280,278.2z M274.4,282.7c-0.4,0.3-0.9,0.5-1.5,0.5c-0.1,0-0.2,0-0.3,0
					c0-0.6,0-1.1,0-1.7c0-1.1,0-2.3,0.1-3.4c0-0.6,0-1.1,0-1.7c0.1,0,0.2,0,0.3,0c0.6,0,1.1,0.2,1.4,0.5c0.4,0.3,0.6,0.7,0.8,1.2
					c0,0,0,0,0,0.1c0.2,0.5,0.3,1.1,0.3,1.7c0,0.6-0.1,1.1-0.3,1.6c0,0,0,0,0,0.1C275.1,282,274.8,282.4,274.4,282.7z"/>
			</g>
			<g>
				<path class="st1" d="M291.5,282.1c-0.1-0.4-0.2-0.7-0.3-1c-0.3-0.5-0.7-1-1.1-1.3c-0.5-0.4-1-0.6-1.5-0.9
					c-0.4-0.2-0.7-0.3-1.1-0.4c-0.2-0.1-0.3-0.1-0.5-0.2c-0.5-0.2-0.9-0.4-1.2-0.6c-0.3-0.2-0.5-0.4-0.4-0.7c0-0.3,0.1-0.5,0.4-0.7
					c0.3-0.2,0.6-0.2,1.1-0.2c0.4,0,0.8,0.1,1.3,0.2c0.5,0.1,1.1,0.4,1.7,0.7c0.4-1,0.7-2,1.1-3c-0.6-0.5-1.3-0.8-2.2-1.1
					c-0.9-0.3-1.7-0.4-2.6-0.5c-0.7,0-1.3,0-1.9,0.2c-0.6,0.1-1.2,0.4-1.7,0.7c-0.5,0.3-0.9,0.7-1.2,1.2c-0.3,0.5-0.5,1.1-0.5,1.8
					c0,0.7,0.1,1.3,0.2,1.8c0,0.1,0.1,0.2,0.1,0.3c0.3,0.6,0.6,1,1.1,1.4c0.4,0.4,0.9,0.6,1.4,0.9c0.5,0.2,1,0.4,1.4,0.6
					c0.3,0.1,0.6,0.3,0.8,0.4c0.1,0.1,0.2,0.1,0.3,0.2c0.3,0.2,0.4,0.5,0.4,0.8c0,0.3-0.2,0.6-0.5,0.7c-0.3,0.2-0.8,0.2-1.4,0.2
					c-0.5,0-1.1-0.1-1.8-0.3c-0.7-0.2-1.4-0.5-2.2-0.9c-0.3,1.1-0.7,2.2-1,3.4c0.8,0.5,1.7,0.9,2.7,1.3c1,0.3,2,0.5,3,0.5
					c0.8,0,1.5,0,2.2-0.2c0.7-0.2,1.3-0.4,1.8-0.8c0.5-0.4,1-0.9,1.3-1.5c0.3-0.6,0.5-1.4,0.6-2.3
					C291.5,282.7,291.5,282.4,291.5,282.1z"/>
			</g>
		</g>
	</g>
	<g>
		<g>
			<g>
				<g>
					<path class="st2" d="M138.4,237.2c-1.9-1.6-4.2-2.8-6.9-3.6c-2.7-0.8-5.6-1-8.9-0.5c0,0,0,0,0-0.1c-5.3,1.1-10.7,2.2-16,3.3
						c3,13.6,6,27.3,9,40.9c5-1.1,10-2.2,15.1-3.2c0,0,0,0,0,0c3-0.8,5.5-2.1,7.5-3.7c2-1.7,3.7-3.6,4.9-5.7c1.2-2.2,2-4.5,2.4-7
						c0.4-2.5,0.4-5,0-7.5c-0.4-2.5-1.2-4.8-2.4-7.1C141.9,240.7,140.4,238.8,138.4,237.2z M132.6,257.1c-0.3,1.5-0.9,2.8-1.8,4
						c-0.9,1.2-2.3,1.9-4,2.2c-0.3,0.1-0.6,0.1-0.9,0.2c-1.3-6.3-2.5-12.6-3.8-18.9c0.3-0.1,0.6-0.1,0.9-0.2
						c1.7-0.3,3.2-0.2,4.6,0.6c1.3,0.7,2.4,1.7,3.2,3c0.8,1.3,1.4,2.7,1.7,4.4C132.9,254,132.9,255.6,132.6,257.1z"/>
				</g>
				<g>
					<path class="st2" d="M172.2,236.8c-1.4-0.7-3-1.1-4.7-1.3c-1.7-0.2-3.5-0.2-5.3,0c-2.1,0.3-4.1,0.9-6,1.9
						c-1.9,0.9-3.6,2.2-5,3.8c-1.4,1.6-2.4,3.5-3.1,5.7c-0.7,2.2-0.7,4.8-0.3,7.6c0.5,3.1,1.5,5.6,2.9,7.6c1.4,1.9,3,3.4,4.8,4.4
						c1.8,1,3.8,1.7,5.9,1.9c2.1,0.2,4.2,0.2,6.1-0.1c2.1-0.3,4-0.8,5.7-1.5c1.7-0.7,3.1-1.5,4.1-2.5c-0.4-3.4-0.9-6.8-1.3-10.2
						c-0.9,1-2.1,1.8-3.4,2.4c-1.3,0.6-2.7,1-4.2,1.2c-1,0.1-1.8,0.2-2.5,0.1c1.7-0.8,3.3-1.7,4.8-2.8c1.5-1.1,2.8-2.3,3.8-3.6
						c1.1-1.3,1.9-2.6,2.4-4c0.6-1.4,0.8-2.7,0.6-4.1c-0.2-1.5-0.7-2.9-1.7-4C174.8,238.4,173.7,237.5,172.2,236.8z M165.8,249.5
						c-0.3,0.7-0.7,1.4-1.2,1.9c-0.6,0.5-1.2,1-2,1.4c-0.8,0.4-1.6,0.8-2.5,1c-0.1-0.2-0.2-0.4-0.2-0.6c0-0.2-0.1-0.4-0.1-0.6
						c-0.2-1.2-0.2-2.2,0-3.1c0.2-0.9,0.4-1.6,0.7-2.2c0.3-0.6,0.8-1,1.3-1.3c0.5-0.3,1-0.5,1.5-0.6c0.7-0.1,1.4,0,1.9,0.3
						c0.5,0.3,0.8,0.7,0.9,1.3C166.1,248,166,248.8,165.8,249.5z"/>
				</g>
				<g>
					<path class="st2" d="M182.7,265.8c3.9-0.5,7.8-0.9,11.7-1.3c-1.4-13.9-2.8-27.8-4.2-41.7c-4.1,0.4-8.3,0.9-12.4,1.4
						C179.4,238.1,181,251.9,182.7,265.8z"/>
				</g>
				<g>
					<path class="st2" d="M223.2,249.7c-1,0.9-2.2,1.6-3.6,2.1c-1.4,0.5-2.8,0.8-4.3,0.9c-1,0.1-1.8,0-2.5-0.1
						c1.7-0.6,3.4-1.5,4.9-2.4c1.6-1,2.9-2.1,4-3.3c1.1-1.2,2-2.5,2.7-3.8c0.7-1.3,0.9-2.7,0.9-4c-0.1-1.6-0.5-2.9-1.4-4.1
						c-0.8-1.2-1.9-2.1-3.3-2.9c-1.4-0.8-2.9-1.3-4.6-1.7c-1.7-0.3-3.5-0.5-5.3-0.3c-2.1,0.2-4.1,0.6-6.1,1.4
						c-2,0.8-3.8,1.9-5.3,3.4c-1.5,1.5-2.7,3.3-3.5,5.5c-0.8,2.2-1.1,4.7-0.8,7.6c0.3,3.1,1.1,5.7,2.3,7.7c1.2,2,2.7,3.6,4.5,4.7
						c1.8,1.1,3.7,1.9,5.8,2.3c2.1,0.4,4.1,0.5,6.1,0.4c2.1-0.2,4-0.5,5.8-1.1c1.7-0.6,3.2-1.3,4.2-2.2
						C223.6,256.6,223.4,253.1,223.2,249.7z M209.8,247.5c-0.8,0.4-1.7,0.6-2.6,0.8c-0.1-0.2-0.2-0.4-0.2-0.6c0-0.2,0-0.4-0.1-0.6
						c-0.1-1.2,0-2.2,0.2-3.1c0.2-0.9,0.5-1.6,0.9-2.1c0.4-0.5,0.8-1,1.4-1.2c0.5-0.3,1-0.4,1.5-0.4c0.7-0.1,1.3,0.1,1.9,0.4
						c0.5,0.3,0.8,0.8,0.8,1.3c0.1,0.9-0.1,1.7-0.4,2.4c-0.3,0.7-0.8,1.3-1.4,1.8C211.3,246.7,210.6,247.1,209.8,247.5z"/>
				</g>
				<g>
					<path class="st2" d="M240,245.8c-0.1-1.6,0.2-2.8,0.9-3.6c0.7-0.8,1.4-1.2,2.3-1.2c0.9,0,1.7,0.3,2.5,1.1
						c0.8,0.8,1.2,1.9,1.2,3.4c0.1,5.2,0.2,10.3,0.4,15.5c3.9-0.1,7.8-0.1,11.7-0.2c0-6.9-0.1-13.9-0.1-20.8c0-2-0.3-3.7-1-5.2
						c-0.6-1.5-1.5-2.7-2.5-3.7c-1-1-2.2-1.7-3.5-2.1c-1.3-0.5-2.6-0.7-3.9-0.6c-1.7,0-3.4,0.5-4.9,1.3c-1.5,0.9-2.7,2.1-3.5,3.7
						c0-1.5-0.1-3-0.1-4.5c-4.1,0.1-8.2,0.3-12.3,0.5c0.5,10.8,1.1,21.5,1.6,32.3c3.9-0.2,7.8-0.4,11.7-0.5
						C240.3,256.1,240.1,251,240,245.8z"/>
				</g>
				<g>
					<path class="st2" d="M265.9,258.1c1.4,1.3,3.1,2.3,4.9,2.8c1.8,0.6,3.6,0.9,5.4,0.9c2.1,0,4.1-0.2,5.9-0.7
						c1.8-0.5,3.3-1.1,4.5-1.9c0.1-3.5,0.2-7,0.4-10.5c-0.1,0-0.2,0-0.3,0c-1,1-2.2,1.8-3.5,2.3c-1.3,0.5-2.6,0.8-4,0.8
						c-0.8,0-1.6-0.2-2.4-0.4c-0.8-0.3-1.4-0.7-2-1.3c-0.6-0.6-1-1.3-1.4-2.2c-0.3-0.9-0.5-1.9-0.5-3.1c0-1.1,0.2-2.1,0.6-2.9
						c0.4-0.8,0.9-1.5,1.6-2c0.6-0.5,1.4-0.9,2.2-1.2c0.8-0.2,1.7-0.4,2.6-0.3c1.2,0,2.5,0.3,3.7,0.8c1.2,0.5,2.3,1.3,3.3,2.2
						c0.1,0,0.2,0,0.3,0c0.1-3.5,0.2-7,0.4-10.5c-1.4-0.7-3-1.3-4.8-1.8c-1.9-0.5-3.8-0.8-5.9-0.8c-2,0-3.9,0.2-5.8,0.7
						c-1.9,0.5-3.6,1.4-5.1,2.7c-1.5,1.2-2.7,2.9-3.6,5c-0.9,2.1-1.4,4.7-1.4,7.9c0,3.2,0.5,5.9,1.4,8.1
						C263.3,255,264.5,256.7,265.9,258.1z"/>
				</g>
				<g>
					<path class="st2" d="M291,259.6c0.8,0.8,1.8,1.4,2.9,1.9c1.1,0.4,2.2,0.7,3.4,0.8c1.4,0.1,2.9-0.1,4.4-0.7
						c1.5-0.5,2.8-1.4,3.9-2.5c-0.1,1.1-0.1,2.1-0.2,3.2c3.9,0.2,7.8,0.5,11.7,0.8c0.5-6,1-11.9,1.4-17.9c0.2-2.7,0-5-0.7-6.9
						c-0.7-1.9-1.7-3.5-3-4.8c-1.3-1.3-2.9-2.2-4.7-2.9c-1.8-0.7-3.9-1.1-6-1.2c-2-0.1-4.1,0-6.3,0.3c-2.2,0.3-4.3,0.8-6.5,1.5
						c0.7,3.2,1.4,6.3,2.1,9.5c3.3-1.1,6-1.6,8.2-1.4c2.2,0.1,3.7,0.9,4.4,2.3c0.2,0.6,0,1-0.8,1.2c-0.7,0.2-1.7,0.4-3,0.5
						c-1.3,0.1-2.7,0.3-4.3,0.5c-1.6,0.2-3.1,0.6-4.5,1.2c-1.4,0.6-2.6,1.5-3.5,2.6c-1,1.2-1.5,2.7-1.5,4.7
						c-0.1,1.6,0.2,2.9,0.6,4.1C289.6,257.8,290.2,258.8,291,259.6z M300,251c0.3-0.4,0.8-0.7,1.3-0.9c0.6-0.2,1.3-0.2,2.1-0.2
						s1.8,0.1,2.8,0.1c0,0.6-0.1,1.2-0.1,1.9c-0.3,1.4-0.8,2.3-1.6,2.9c-0.7,0.5-1.5,0.8-2.3,0.7c-0.8,0-1.4-0.3-2-0.8
						c-0.6-0.5-0.9-1.1-0.8-1.8C299.5,252.1,299.6,251.4,300,251z"/>
				</g>
				<g>
					<path class="st2" d="M333.8,249.7c0.2-1.6,0.6-2.7,1.4-3.4c0.8-0.7,1.6-1,2.4-0.9c0.9,0.1,1.7,0.6,2.3,1.4
						c0.7,0.9,0.9,2,0.7,3.5c-0.6,5.1-1.2,10.3-1.7,15.4c3.9,0.4,7.7,0.9,11.6,1.4c0.9-6.9,1.8-13.8,2.7-20.6c0.3-2,0.2-3.7-0.3-5.3
						c-0.4-1.5-1.1-2.9-1.9-4c-0.9-1.1-1.9-2-3.2-2.6c-1.2-0.6-2.5-1-3.8-1.2c-1.7-0.2-3.4,0-5,0.7c-1.6,0.6-2.9,1.7-4,3.2
						c0.2-1.5,0.3-3,0.5-4.5c-4.1-0.4-8.2-0.8-12.2-1.2c-0.9,10.7-1.8,21.5-2.8,32.2c3.9,0.3,7.8,0.7,11.7,1.1
						C332.8,260,333.3,254.9,333.8,249.7z"/>
				</g>
				<g>
					<path class="st2" d="M356.9,265.8c0.9,1.2,2.1,2.1,3.5,2.7c1.4,0.6,2.9,1.1,4.6,1.3c1.3,0.2,2.7,0.3,4.1,0.3
						c1.4,0,2.8-0.1,4.2-0.3c0.5-3.2,1-6.3,1.6-9.5c-0.4,0-0.9,0.1-1.4,0.1c-0.4,0-0.9,0-1.4,0c-0.5,0-1.1,0-1.6-0.1
						c-1.1-0.2-2-0.5-2.8-1c-0.8-0.5-1.1-1.4-0.9-2.6c0.5-3.5,1.1-6.1,1.6-9.6c2.1,0.3,4.2,0.6,6.2,1c0.5-3,1-6,1.5-9
						c-2.1-0.3-4.2-0.7-6.3-1c0.5-3.2,1-6.3,1.4-9.5c-4.1-0.6-8.2-1.2-12.4-1.8c-1.3,9.7-2.6,18.5-3.9,28.2
						c-0.3,2.5-0.3,4.6,0.1,6.4C355.3,263.1,356,264.6,356.9,265.8z"/>
				</g>
				<g>
					<path class="st2" d="M378.7,267.8c1,1.7,2.4,3.1,4.2,4.4c1.8,1.2,4,2.1,6.7,2.6c2.7,0.5,5.1,0.5,7.2,0.1c2.1-0.5,4-1.3,5.5-2.5
						c1.6-1.2,2.9-2.7,3.9-4.5c1-1.8,1.8-3.8,2.2-6.1c0.5-2.2,0.6-4.4,0.4-6.5c-0.2-2.1-0.8-4-1.8-5.8c-1-1.7-2.4-3.2-4.3-4.5
						c-1.9-1.2-4.2-2.1-7-2.7c-2.8-0.5-5.3-0.6-7.5-0.1c-2.2,0.5-4,1.3-5.6,2.6c-1.6,1.2-2.8,2.8-3.8,4.7c-0.9,1.9-1.6,3.9-2,6.2
						c-0.4,2.2-0.4,4.4-0.2,6.5C377,264.2,377.7,266.1,378.7,267.8z M389,255.3c0.3-0.7,0.6-1.4,1.1-1.8c0.4-0.5,1-0.8,1.6-1.1
						c0.6-0.2,1.4-0.3,2.2-0.1c0.8,0.2,1.5,0.5,2,0.9c0.5,0.4,0.9,1,1.1,1.6c0.2,0.6,0.3,1.3,0.3,2.1c0,0.8-0.1,1.6-0.3,2.5
						c-0.2,0.9-0.4,1.6-0.7,2.4c-0.3,0.7-0.7,1.3-1.1,1.8c-0.4,0.5-1,0.8-1.6,1.1c-0.6,0.2-1.4,0.3-2.2,0.1c-1.6-0.3-2.6-1.1-3-2.4
						c-0.4-1.3-0.4-2.8-0.1-4.6C388.5,256.8,388.7,256,389,255.3z"/>
				</g>
			</g>
			<path class="st2" d="M430.8,227.2c-1.1-1.8-3-3.2-5.2-3.7c-54.8-12.6-108.6-18.4-164.8-18.4s-112.6,6.4-167.4,19
				c-2.2,0.5-4.1,1.8-5.2,3.7c-1,1.6-1.3,3.4-0.9,5.1l13.5,56c0.8,3.3,3.8,5.5,7.1,5.5c0.6,0,1.1-0.1,1.7-0.2
				c37.2-8.5,75.3-13.9,113.4-16.1l0.6,0l-0.3-4.5l-0.6,0c-38.3,2.2-76.7,7.6-114.1,16.2c-1.4,0.3-2.9-0.5-3.2-1.9L92,231.7
				c-0.1-0.6,0-1.3,0.3-1.8c0.4-0.7,1.2-1.2,2-1.4c54.5-12.5,110.5-18.9,166.4-18.9s109.3,5.8,163.8,18.3c0.8,0.2,1.6,0.7,2,1.4
				c0.4,0.6,0.5,1.2,0.3,1.8l-13.2,56.1c-0.3,1.4-1.8,2.3-3.2,1.9c-37.9-8.7-73.6-13.6-112.5-15.6l-0.6,0l-0.2,4.5l0.6,0
				c38.6,2.1,74.1,6.9,111.7,15.5c3.9,0.9,7.8-1.5,8.7-5.3l13.5-56C432.1,230.6,431.8,228.8,430.8,227.2z"/>
		</g>
		<g>
			<g>
				<path class="st2" d="M229.7,278.7c0.1,1.1,0.1,2.3,0.2,3.4c0.1,1.9,0.2,3.8,0.3,5.7c1.5-0.1,2.9-0.1,4.4-0.2
					c-0.1-1.7-0.1-2.7-0.2-4.4c1.2,0,2.3-0.1,3.5-0.1c0-0.2,0-0.5,0-0.7c0-1.1-0.1-2.2-0.1-3.3c-1.2,0-2.4,0.1-3.5,0.1
					c0-0.1,0-0.1,0-0.2c0-0.6,0-1.1-0.1-1.7c1.8-0.1,3.6-0.1,5.3-0.2c0-1.3-0.1-3.3-0.1-4.6c-3.3,0.1-6.6,0.2-9.8,0.4
					C229.5,274.9,229.6,276.8,229.7,278.7z"/>
			</g>
			<g>
				<path class="st2" d="M252.4,276.4c-0.4-1-0.8-1.7-1.5-2.4c-0.6-0.6-1.3-1.1-2.1-1.4c-0.8-0.3-1.7-0.5-2.6-0.4
					c-0.9,0-1.8,0.2-2.6,0.5c-0.8,0.3-1.5,0.9-2.1,1.5c-0.6,0.7-1,1.5-1.4,2.4c-0.2,0.5-0.3,1-0.4,1.6c-0.1,0.5-0.1,1.1-0.1,1.7
					c0,0.6,0.1,1.2,0.2,1.7c0.1,0.6,0.3,1.1,0.4,1.6c0.4,0.9,0.9,1.7,1.5,2.4c0.6,0.6,1.3,1.1,2.1,1.4c0.8,0.3,1.6,0.4,2.5,0.4
					c0.9,0,1.7-0.2,2.5-0.5c0.8-0.3,1.5-0.8,2.1-1.5c0.6-0.7,1-1.5,1.4-2.4c0.2-0.5,0.3-1,0.4-1.6c0.1-0.5,0.1-1.1,0.1-1.7
					c0-0.6-0.1-1.2-0.1-1.7C252.8,277.4,252.6,276.9,252.4,276.4z M248.1,282.5c-0.4,0.6-1,0.9-1.7,0.9c-0.7,0-1.2-0.3-1.7-0.9
					c-0.2-0.3-0.4-0.6-0.5-0.9c-0.2-0.5-0.3-1-0.3-1.7c0-0.7,0-1.2,0.2-1.7c0.1-0.4,0.3-0.7,0.5-1c0.5-0.6,1-0.9,1.7-0.9
					c0.7,0,1.2,0.3,1.7,0.9c0.2,0.3,0.4,0.6,0.5,1c0.2,0.5,0.2,1,0.2,1.7c0,0.7-0.1,1.2-0.2,1.7
					C248.5,281.9,248.3,282.2,248.1,282.5z"/>
			</g>
			<g>
				<path class="st2" d="M266.8,276.4c-0.3-1-0.8-1.8-1.4-2.4c-0.6-0.6-1.3-1.1-2.1-1.5c-0.8-0.3-1.7-0.5-2.6-0.5
					c-0.9,0-1.8,0.2-2.6,0.5c-0.8,0.3-1.5,0.8-2.1,1.5c-0.6,0.6-1.1,1.5-1.4,2.4c-0.2,0.5-0.3,1-0.4,1.6c-0.1,0.5-0.1,1.1-0.1,1.7
					s0.1,1.2,0.1,1.7c0.1,0.6,0.2,1.1,0.4,1.6c0.4,1,0.8,1.8,1.4,2.4s1.3,1.1,2.1,1.4c0.8,0.3,1.6,0.5,2.5,0.5
					c0.9,0,1.7-0.2,2.5-0.5c0.8-0.3,1.5-0.8,2.1-1.4c0.6-0.6,1.1-1.4,1.4-2.4c0.2-0.5,0.3-1,0.4-1.6c0.1-0.5,0.1-1.1,0.1-1.7
					c0-0.6,0-1.2-0.1-1.7C267.1,277.4,267,276.9,266.8,276.4z M262.3,282.3c-0.5,0.6-1,0.9-1.7,0.9c-0.7,0-1.2-0.3-1.7-0.9
					c-0.2-0.3-0.4-0.6-0.5-0.9c-0.1-0.5-0.2-1-0.2-1.7c0-0.7,0.1-1.2,0.2-1.7c0.1-0.4,0.3-0.7,0.5-1c0.5-0.6,1-0.9,1.7-0.9
					c0.7,0,1.2,0.3,1.7,0.9c0.2,0.3,0.4,0.6,0.5,1c0.1,0.5,0.2,1,0.2,1.7c0,0.7-0.1,1.2-0.2,1.7
					C262.7,281.8,262.5,282.1,262.3,282.3z"/>
			</g>
			<g>
				<path class="st2" d="M280,278.2c-0.1-0.3-0.1-0.6-0.2-0.9c-0.2-0.9-0.6-1.6-1.1-2.3c-0.5-0.7-1.2-1.3-2-1.8
					c-0.8-0.5-1.8-0.8-2.8-0.8c0,0,0,0,0,0c-1.8,0-3.6-0.1-5.4-0.1c0,1.9,0,3.8-0.1,5.7c0,1.1,0,2.3,0,3.4c0,1.9,0,3.8-0.1,5.7
					c1.8,0,3.5,0,5.3,0.1c0,0,0,0,0,0c1.1-0.1,2-0.3,2.8-0.7s1.5-1,2-1.7c0.6-0.7,1-1.4,1.3-2.3c0.1-0.3,0.2-0.6,0.3-0.9
					c0.1-0.6,0.2-1.1,0.2-1.7C280.1,279.4,280.1,278.8,280,278.2z M274.4,282.7c-0.4,0.3-0.9,0.5-1.5,0.5c-0.1,0-0.2,0-0.3,0
					c0-0.6,0-1.1,0-1.7c0-1.1,0-2.3,0.1-3.4c0-0.6,0-1.1,0-1.7c0.1,0,0.2,0,0.3,0c0.6,0,1.1,0.2,1.4,0.5c0.4,0.3,0.6,0.7,0.8,1.2
					c0,0,0,0,0,0.1c0.2,0.5,0.3,1.1,0.3,1.7c0,0.6-0.1,1.1-0.3,1.6c0,0,0,0,0,0.1C275.1,282,274.8,282.4,274.4,282.7z"/>
			</g>
			<g>
				<path class="st2" d="M291.5,282.1c-0.1-0.4-0.2-0.7-0.3-1c-0.3-0.5-0.7-1-1.1-1.3c-0.5-0.4-1-0.6-1.5-0.9
					c-0.4-0.2-0.7-0.3-1.1-0.4c-0.2-0.1-0.3-0.1-0.5-0.2c-0.5-0.2-0.9-0.4-1.2-0.6c-0.3-0.2-0.5-0.4-0.4-0.7c0-0.3,0.1-0.5,0.4-0.7
					c0.3-0.2,0.6-0.2,1.1-0.2c0.4,0,0.8,0.1,1.3,0.2c0.5,0.1,1.1,0.4,1.7,0.7c0.4-1,0.7-2,1.1-3c-0.6-0.5-1.3-0.8-2.2-1.1
					c-0.9-0.3-1.7-0.4-2.6-0.5c-0.7,0-1.3,0-1.9,0.2c-0.6,0.1-1.2,0.4-1.7,0.7c-0.5,0.3-0.9,0.7-1.2,1.2c-0.3,0.5-0.5,1.1-0.5,1.8
					c0,0.7,0.1,1.3,0.2,1.8c0,0.1,0.1,0.2,0.1,0.3c0.3,0.6,0.6,1,1.1,1.4c0.4,0.4,0.9,0.6,1.4,0.9c0.5,0.2,1,0.4,1.4,0.6
					c0.3,0.1,0.6,0.3,0.8,0.4c0.1,0.1,0.2,0.1,0.3,0.2c0.3,0.2,0.4,0.5,0.4,0.8c0,0.3-0.2,0.6-0.5,0.7c-0.3,0.2-0.8,0.2-1.4,0.2
					c-0.5,0-1.1-0.1-1.8-0.3c-0.7-0.2-1.4-0.5-2.2-0.9c-0.3,1.1-0.7,2.2-1,3.4c0.8,0.5,1.7,0.9,2.7,1.3c1,0.3,2,0.5,3,0.5
					c0.8,0,1.5,0,2.2-0.2c0.7-0.2,1.3-0.4,1.8-0.8c0.5-0.4,1-0.9,1.3-1.5c0.3-0.6,0.5-1.4,0.6-2.3
					C291.5,282.7,291.5,282.4,291.5,282.1z"/>
			</g>
		</g>
	</g>
</g>
</svg>
