<?xml version="1.0" encoding="utf-8"?>
<!-- Generator: Adobe Illustrator 24.1.1, SVG Export Plug-In . SVG Version: 6.00 Build 0)  -->
<svg version="1.0" id="Layer_1" xmlns="http://www.w3.org/2000/svg" xmlns:xlink="http://www.w3.org/1999/xlink" x="0px" y="0px"
	 viewBox="0 0 50 50" style="enable-background:new 0 0 50 50;" xml:space="preserve">
<style type="text/css">
	.st0{fill:#FFFFFF;}
</style>
<g>
	<path class="st0" d="M29.3,25.5l7.6-6.7v12.6L29.3,25.5z M13.2,18.8v12.6l7.6-5.9L13.2,18.8z M25.8,28.6c-0.2,0.2-0.5,0.3-0.8,0.3
		s-0.5-0.1-0.8-0.3L22.5,27l-7.2,5.6h19.4L27.5,27L25.8,28.6z M23.3,24.7l1.7,1.5l10-8.9H15L23.3,24.7
		C23.2,24.7,23.3,24.7,23.3,24.7L23.3,24.7z M49.2,25c0,13.3-10.8,24.2-24.2,24.2S0.8,38.3,0.8,25C0.8,11.7,11.7,0.8,25,0.8
		S49.2,11.7,49.2,25z M39.1,18.1c0-1.6-1.3-3-2.9-3H13.7c-1.6,0-2.9,1.3-2.9,3v13.9c0,0.8,0.3,1.6,0.9,2.1l0,0
		c0.5,0.5,1.2,0.8,2,0.8h22.5c1.6,0,2.9-1.3,2.9-3L39.1,18.1L39.1,18.1z"/>
</g>
</svg>
