<?xml version="1.0" encoding="utf-8"?>
<!-- Generator: Adobe Illustrator 24.1.1, SVG Export Plug-In . SVG Version: 6.00 Build 0)  -->
<svg version="1.1" id="Layer_1" xmlns="http://www.w3.org/2000/svg" xmlns:xlink="http://www.w3.org/1999/xlink" x="0px" y="0px"
	 viewBox="0 0 41 40.2" style="enable-background:new 0 0 41 40.2;" xml:space="preserve">
<style type="text/css">
	.st0{fill:#FFFFFF;}
	.st1{fill-rule:evenodd;clip-rule:evenodd;fill:#FFFFFF;}
</style>
<g>
	<path class="st0" d="M102.5-81.9l7.6-6.7V-76L102.5-81.9z M86.4-88.7V-76l7.6-5.9L86.4-88.7z M99-78.8c-0.2,0.2-0.5,0.3-0.8,0.3
		s-0.5-0.1-0.8-0.3l-1.8-1.6l-7.2,5.6h19.4l-7.2-5.6L99-78.8z M96.5-82.7l1.7,1.5l10-8.9h-20L96.5-82.7
		C96.5-82.7,96.5-82.7,96.5-82.7L96.5-82.7z M122.4-82.4c0,13.3-10.8,24.2-24.2,24.2S74-69.1,74-82.4c0-13.3,10.8-24.2,24.2-24.2
		S122.4-95.8,122.4-82.4z M112.3-89.4c0-1.6-1.3-3-2.9-3H87c-1.6,0-2.9,1.3-2.9,3v13.9c0,0.8,0.3,1.6,0.9,2.1l0,0
		c0.5,0.5,1.2,0.8,2,0.8h22.5c1.6,0,2.9-1.3,2.9-3L112.3-89.4L112.3-89.4z"/>
</g>
<path class="st1" d="M26.3-108.7c3.3,0,6.4,0.9,9.1,2.5c2.7,1.6,4.9,3.8,6.4,6.5c1.6,2.7,2.4,5.8,2.5,9.1c-0.1,4.6-1.5,8.5-4.4,11.8
	c-2.8,3.3-6.4,5.3-10.1,6v-12.9h3.5l0.8-5.1h-5.3v-3.3c0-0.7,0.2-1.4,0.6-1.9c0.4-0.5,1.2-0.8,2.3-0.9h3.2v-4.4c0,0-0.5-0.1-1.3-0.2
	c-0.9-0.1-1.9-0.2-2.8-0.2c-2.1,0-3.8,0.6-5.1,1.8c-1.2,1.2-1.9,2.9-1.9,5.2v3.9h-4.1v5.1h4.1v12.9c-4.6-0.8-8.2-2.8-11-6
	c-2.8-3.3-4.3-7.2-4.4-11.8c0-3.4,0.9-6.4,2.5-9.1c1.6-2.7,3.8-4.9,6.4-6.5C20-107.9,23-108.7,26.3-108.7L26.3-108.7z"/>
<g>
	<path class="st0" d="M-57.4-91.9c0,2-1.6,3.5-3.5,3.5s-3.5-1.6-3.5-3.5s1.6-3.5,3.5-3.5S-57.4-93.8-57.4-91.9z"/>
	<path class="st0" d="M-52.7-98.2c-0.2-0.5-0.4-0.9-0.8-1.2c-0.3-0.4-0.8-0.6-1.2-0.8c-0.4-0.1-0.9-0.3-2-0.4
		c-1.1-0.1-1.5-0.1-4.3-0.1c-2.8,0-3.2,0-4.3,0.1c-1,0-1.6,0.2-2,0.4c-0.5,0.2-0.9,0.4-1.2,0.8c-0.4,0.3-0.6,0.8-0.8,1.2
		c-0.1,0.4-0.3,0.9-0.4,2c-0.1,1.1-0.1,1.5-0.1,4.3c0,2.8,0,3.2,0.1,4.3c0,1,0.2,1.6,0.4,2c0.2,0.5,0.4,0.9,0.8,1.2
		c0.3,0.4,0.8,0.6,1.2,0.8c0.4,0.1,0.9,0.3,2,0.4c1.1,0.1,1.5,0.1,4.3,0.1c2.8,0,3.2,0,4.3-0.1c1,0,1.6-0.2,2-0.4
		c0.9-0.4,1.7-1.1,2-2c0.1-0.4,0.3-0.9,0.4-2c0.1-1.1,0.1-1.5,0.1-4.3c0-2.8,0-3.2-0.1-4.3C-52.3-97.2-52.5-97.8-52.7-98.2z
		 M-61-86.4c-3,0-5.5-2.4-5.5-5.5c0-3,2.4-5.5,5.5-5.5c3,0,5.5,2.4,5.5,5.5C-55.5-88.9-57.9-86.4-61-86.4z M-55.3-96.3
		c-0.7,0-1.3-0.6-1.3-1.3c0-0.7,0.6-1.3,1.3-1.3c0.7,0,1.3,0.6,1.3,1.3C-54-96.9-54.6-96.3-55.3-96.3z"/>
	<path class="st0" d="M-61-110.4c-10.2,0-18.5,8.3-18.5,18.5s8.3,18.5,18.5,18.5s18.5-8.3,18.5-18.5S-50.7-110.4-61-110.4z
		 M-50.4-87.5c-0.1,1.1-0.2,1.9-0.5,2.6c-0.6,1.4-1.7,2.6-3.1,3.1c-0.7,0.3-1.5,0.4-2.6,0.5c-1.1,0.1-1.5,0.1-4.4,0.1
		c-2.9,0-3.3,0-4.4-0.1c-1.1-0.1-1.9-0.2-2.6-0.5c-0.7-0.3-1.4-0.7-1.9-1.2c-0.5-0.5-1-1.2-1.2-1.9c-0.3-0.7-0.4-1.5-0.5-2.6
		c-0.1-1.1-0.1-1.5-0.1-4.4s0-3.3,0.1-4.4c0.1-1.1,0.2-1.9,0.5-2.6c0.3-0.7,0.7-1.4,1.2-1.9c0.5-0.5,1.2-1,1.9-1.2
		c0.7-0.3,1.5-0.4,2.6-0.5c1.1-0.1,1.5-0.1,4.4-0.1c2.9,0,3.3,0,4.4,0.1c1.1,0.1,1.9,0.2,2.6,0.5c0.7,0.3,1.4,0.7,1.9,1.2
		c0.5,0.5,1,1.2,1.2,1.9c0.3,0.7,0.4,1.5,0.5,2.6c0.1,1.1,0.1,1.5,0.1,4.4S-50.3-88.6-50.4-87.5z"/>
</g>
<path class="st0" d="M20.5,1.5C10.2,1.5,1.9,9.9,1.9,20.1s8.3,18.5,18.5,18.5S39,30.3,39,20.1S30.7,1.5,20.5,1.5z M29.8,15.7v2.5
	c-1.2,0-2.3-0.2-3.4-0.7c-0.7-0.3-1.3-0.7-1.9-1.1l0,7.7c0,1.7-0.7,3.4-1.9,4.6c-1,1-2.3,1.6-3.7,1.8c-0.3,0-0.7,0.1-1,0.1
	c-1.5,0-2.9-0.5-4.1-1.4c-0.2-0.2-0.4-0.3-0.6-0.5c-1.4-1.3-2-3.1-1.9-5c0.1-1.4,0.7-2.8,1.6-3.9c1.3-1.4,3.1-2.2,5-2.2
	c0.3,0,0.7,0,1,0.1v0.9v2.6c-0.3-0.1-0.6-0.2-1-0.2c-1.7,0-3.2,1.4-3.1,3.2c0,1.1,0.6,2.1,1.5,2.6c0.4,0.3,0.9,0.4,1.4,0.4
	c0.4,0,0.8,0,1.2-0.2c1.2-0.4,2.2-1.6,2.2-3l0-5.2V9.5h3.5c0,0.3,0,0.7,0.1,1c0.3,1.3,1,2.4,2,3.2c0.9,0.7,2,1.1,3.2,1.1
	c0,0,0,0,0,0L29.8,15.7L29.8,15.7z"/>
</svg>
