<?xml version="1.0" encoding="utf-8"?>
<!-- Generator: Adobe Illustrator 24.1.1, SVG Export Plug-In . SVG Version: 6.00 Build 0)  -->
<svg version="1.0" id="Layer_1" xmlns="http://www.w3.org/2000/svg" xmlns:xlink="http://www.w3.org/1999/xlink" x="0px" y="0px"
	 viewBox="0 0 50 50" style="enable-background:new 0 0 50 50;" xml:space="preserve">
<style type="text/css">
	.st0{fill:#FFFFFF;}
</style>
<g>
	<path class="st0" d="M107.2-76.6l7.6-6.7v12.6L107.2-76.6z M91.1-83.3v12.6l7.6-5.9L91.1-83.3z M103.7-73.5
		c-0.2,0.2-0.5,0.3-0.8,0.3s-0.5-0.1-0.8-0.3l-1.8-1.6l-7.2,5.6h19.4l-7.2-5.6L103.7-73.5z M101.2-77.4l1.7,1.5l10-8.9H93
		L101.2-77.4C101.2-77.4,101.2-77.4,101.2-77.4L101.2-77.4z M127.2-77.1c0,13.3-10.8,24.2-24.2,24.2S78.8-63.8,78.8-77.1
		c0-13.3,10.8-24.2,24.2-24.2S127.2-90.4,127.2-77.1z M117.1-84.1c0-1.6-1.3-3-2.9-3H91.7c-1.6,0-2.9,1.3-2.9,3v13.9
		c0,0.8,0.3,1.6,0.9,2.1l0,0c0.5,0.5,1.2,0.8,2,0.8h22.5c1.6,0,2.9-1.3,2.9-3L117.1-84.1L117.1-84.1z"/>
</g>
<g>
	<path class="st0" d="M25,0.8C11.7,0.8,0.8,11.7,0.8,25S11.7,49.2,25,49.2S49.2,38.3,49.2,25S38.3,0.8,25,0.8z M25.3,38.8L25.3,38.8
		c-2.4,0-4.7-0.6-6.8-1.7l-7.5,2l2-7.3c-1.2-2.1-1.9-4.6-1.9-7.1c0-7.8,6.3-14.1,14.1-14.1c3.8,0,7.3,1.5,10,4.1
		c2.7,2.7,4.1,6.2,4.1,10C39.4,32.5,33.1,38.8,25.3,38.8z M25.3,12.9c-6.5,0-11.7,5.3-11.7,11.7c0,2.2,0.6,4.4,1.8,6.2l0.3,0.4
		l-1.2,4.3l4.4-1.2l0.4,0.3c1.8,1.1,3.9,1.6,6,1.6h0c6.5,0,11.7-5.3,11.7-11.7c0-3.1-1.2-6.1-3.4-8.3C31.4,14.2,28.5,12.9,25.3,12.9
		z M32.2,29.7c-0.3,0.8-1.7,1.6-2.4,1.7c-0.6,0.1-1.4,0.1-2.2-0.1c-0.5-0.2-1.2-0.4-2-0.7c-3.5-1.5-5.9-5.1-6-5.3
		c-0.2-0.2-1.4-1.9-1.4-3.7c0-1.7,0.9-2.6,1.2-2.9c0.3-0.4,0.7-0.4,0.9-0.4c0.2,0,0.5,0,0.7,0c0.2,0,0.5-0.1,0.8,0.6
		c0.3,0.7,1,2.4,1.1,2.6c0.1,0.2,0.1,0.4,0,0.6c-0.1,0.2-0.2,0.4-0.4,0.6c-0.2,0.2-0.4,0.5-0.5,0.6c-0.2,0.2-0.4,0.4-0.2,0.7
		c0.2,0.4,0.9,1.5,2,2.4c1.3,1.2,2.5,1.6,2.8,1.8c0.4,0.2,0.6,0.1,0.8-0.1c0.2-0.2,0.9-1,1.1-1.4c0.2-0.4,0.5-0.3,0.8-0.2
		c0.3,0.1,2.1,1,2.4,1.1c0.4,0.2,0.6,0.3,0.7,0.4C32.5,28.2,32.5,28.9,32.2,29.7z"/>
</g>
</svg>
